<svg width="113" height="19" viewBox="0 0 113 19" fill="none" xmlns="http://www.w3.org/2000/svg">
<path d="M0.993608 18.5V1.04545H7.98224C9.26634 1.04545 10.3374 1.2358 11.1953 1.61648C12.0533 1.99716 12.6982 2.52557 13.13 3.2017C13.5618 3.87216 13.7777 4.64489 13.7777 5.51989C13.7777 6.2017 13.6413 6.80114 13.3686 7.31818C13.0959 7.82955 12.7209 8.25 12.2436 8.57955C11.772 8.90341 11.2322 9.13352 10.6243 9.26989V9.44034C11.2891 9.46875 11.9112 9.65625 12.4908 10.0028C13.076 10.3494 13.5504 10.8352 13.9141 11.4602C14.2777 12.0795 14.4595 12.8182 14.4595 13.6761C14.4595 14.6023 14.2294 15.429 13.7692 16.1562C13.3146 16.8778 12.6413 17.4489 11.7493 17.8693C10.8572 18.2898 9.75781 18.5 8.45099 18.5H0.993608ZM4.68395 15.483H7.69247C8.72088 15.483 9.47088 15.2869 9.94247 14.8949C10.4141 14.4972 10.6499 13.9687 10.6499 13.3097C10.6499 12.8267 10.5334 12.4006 10.3004 12.0312C10.0675 11.6619 9.73509 11.3722 9.30327 11.1619C8.87713 10.9517 8.36861 10.8466 7.7777 10.8466H4.68395V15.483ZM4.68395 8.34943H7.41974C7.92543 8.34943 8.37429 8.26136 8.76634 8.08523C9.16406 7.90341 9.47656 7.64773 9.70384 7.31818C9.93679 6.98864 10.0533 6.59375 10.0533 6.13352C10.0533 5.50284 9.82884 4.99432 9.37997 4.60795C8.93679 4.22159 8.30611 4.02841 7.48793 4.02841H4.68395V8.34943ZM22.7074 18.7557C21.3835 18.7557 20.2386 18.4744 19.2727 17.9119C18.3125 17.3437 17.571 16.554 17.0483 15.5426C16.5256 14.5256 16.2642 13.3466 16.2642 12.0057C16.2642 10.6534 16.5256 9.47159 17.0483 8.46023C17.571 7.44318 18.3125 6.65341 19.2727 6.09091C20.2386 5.52273 21.3835 5.23864 22.7074 5.23864C24.0312 5.23864 25.1733 5.52273 26.1335 6.09091C27.0994 6.65341 27.8438 7.44318 28.3665 8.46023C28.8892 9.47159 29.1506 10.6534 29.1506 12.0057C29.1506 13.3466 28.8892 14.5256 28.3665 15.5426C27.8438 16.554 27.0994 17.3437 26.1335 17.9119C25.1733 18.4744 24.0312 18.7557 22.7074 18.7557ZM22.7244 15.9432C23.3267 15.9432 23.8295 15.7727 24.233 15.4318C24.6364 15.0852 24.9403 14.6136 25.1449 14.017C25.3551 13.4205 25.4602 12.7415 25.4602 11.9801C25.4602 11.2188 25.3551 10.5398 25.1449 9.94318C24.9403 9.34659 24.6364 8.875 24.233 8.52841C23.8295 8.18182 23.3267 8.00852 22.7244 8.00852C22.1165 8.00852 21.6051 8.18182 21.1903 8.52841C20.7813 8.875 20.4716 9.34659 20.2614 9.94318C20.0568 10.5398 19.9545 11.2188 19.9545 11.9801C19.9545 12.7415 20.0568 13.4205 20.2614 14.017C20.4716 14.6136 20.7813 15.0852 21.1903 15.4318C21.6051 15.7727 22.1165 15.9432 22.7244 15.9432ZM37.4261 18.7557C36.1023 18.7557 34.9574 18.4744 33.9915 17.9119C33.0313 17.3437 32.2898 16.554 31.767 15.5426C31.2443 14.5256 30.983 13.3466 30.983 12.0057C30.983 10.6534 31.2443 9.47159 31.767 8.46023C32.2898 7.44318 33.0313 6.65341 33.9915 6.09091C34.9574 5.52273 36.1023 5.23864 37.4261 5.23864C38.75 5.23864 39.892 5.52273 40.8523 6.09091C41.8182 6.65341 42.5625 7.44318 43.0852 8.46023C43.608 9.47159 43.8693 10.6534 43.8693 12.0057C43.8693 13.3466 43.608 14.5256 43.0852 15.5426C42.5625 16.554 41.8182 17.3437 40.8523 17.9119C39.892 18.4744 38.75 18.7557 37.4261 18.7557ZM37.4432 15.9432C38.0455 15.9432 38.5483 15.7727 38.9517 15.4318C39.3551 15.0852 39.6591 14.6136 39.8636 14.017C40.0739 13.4205 40.179 12.7415 40.179 11.9801C40.179 11.2188 40.0739 10.5398 39.8636 9.94318C39.6591 9.34659 39.3551 8.875 38.9517 8.52841C38.5483 8.18182 38.0455 8.00852 37.4432 8.00852C36.8352 8.00852 36.3239 8.18182 35.9091 8.52841C35.5 8.875 35.1903 9.34659 34.9801 9.94318C34.7756 10.5398 34.6733 11.2188 34.6733 11.9801C34.6733 12.7415 34.7756 13.4205 34.9801 14.017C35.1903 14.6136 35.5 15.0852 35.9091 15.4318C36.3239 15.7727 36.8352 15.9432 37.4432 15.9432ZM49.5199 14.733L49.5284 10.3778H50.0568L54.25 5.40909H58.4176L52.7841 11.9886H51.9233L49.5199 14.733ZM46.2301 18.5V1.04545H49.8608V18.5H46.2301ZM54.4119 18.5L50.5597 12.7983L52.9801 10.233L58.6648 18.5H54.4119ZM75.6676 7.15625H71.9347C71.8665 6.6733 71.7273 6.24432 71.517 5.86932C71.3068 5.48864 71.0369 5.16477 70.7074 4.89773C70.3778 4.63068 69.9972 4.42614 69.5653 4.28409C69.1392 4.14205 68.6761 4.07102 68.1761 4.07102C67.2727 4.07102 66.4858 4.29545 65.8153 4.74432C65.1449 5.1875 64.625 5.83523 64.2557 6.6875C63.8864 7.53409 63.7017 8.5625 63.7017 9.77273C63.7017 11.017 63.8864 12.0625 64.2557 12.9091C64.6307 13.7557 65.1534 14.3949 65.8239 14.8267C66.4943 15.2585 67.2699 15.4744 68.1506 15.4744C68.6449 15.4744 69.1023 15.4091 69.5227 15.2784C69.9489 15.1477 70.3267 14.9574 70.6562 14.7074C70.9858 14.4517 71.2585 14.142 71.4744 13.7784C71.696 13.4148 71.8494 13 71.9347 12.5341L75.6676 12.5511C75.571 13.3523 75.3295 14.125 74.9432 14.8693C74.5625 15.608 74.0483 16.2699 73.4006 16.8551C72.7585 17.4347 71.9915 17.8949 71.0994 18.2358C70.2131 18.571 69.2102 18.7386 68.0909 18.7386C66.5341 18.7386 65.142 18.3864 63.9148 17.6818C62.6932 16.9773 61.7273 15.9574 61.017 14.6222C60.3125 13.2869 59.9602 11.6705 59.9602 9.77273C59.9602 7.86932 60.3182 6.25 61.0341 4.91477C61.75 3.57955 62.7216 2.5625 63.9489 1.86364C65.1761 1.15909 66.5568 0.806818 68.0909 0.806818C69.1023 0.806818 70.0398 0.948863 70.9034 1.23295C71.7727 1.51705 72.5426 1.93182 73.2131 2.47727C73.8835 3.01704 74.429 3.67898 74.8494 4.46307C75.2756 5.24716 75.5483 6.14489 75.6676 7.15625ZM81.8764 1.04545V18.5H78.2457V1.04545H81.8764ZM93.1797 12.9261V5.40909H96.8104V18.5H93.3246V16.1222H93.1882C92.8928 16.8892 92.4013 17.5057 91.7138 17.9716C91.032 18.4375 90.1996 18.6705 89.2166 18.6705C88.3416 18.6705 87.5717 18.4716 86.907 18.0739C86.2422 17.6761 85.7223 17.1108 85.3473 16.3778C84.978 15.6449 84.7905 14.767 84.7848 13.7443V5.40909H88.4155V13.0966C88.4212 13.8693 88.6286 14.4801 89.0376 14.929C89.4467 15.3778 89.995 15.6023 90.6825 15.6023C91.12 15.6023 91.5291 15.5028 91.9098 15.304C92.2905 15.0994 92.5973 14.7983 92.8303 14.4006C93.0689 14.0028 93.1854 13.5114 93.1797 12.9261ZM99.7827 18.5V1.04545H103.413V7.60795H103.524C103.683 7.25568 103.913 6.89773 104.214 6.53409C104.521 6.16477 104.919 5.85795 105.408 5.61364C105.902 5.36364 106.516 5.23864 107.249 5.23864C108.203 5.23864 109.084 5.48864 109.891 5.98864C110.697 6.48295 111.342 7.23011 111.825 8.23011C112.308 9.22443 112.55 10.4716 112.55 11.9716C112.55 13.4318 112.314 14.6648 111.842 15.6705C111.376 16.6705 110.74 17.429 109.933 17.946C109.132 18.4574 108.234 18.7131 107.24 18.7131C106.536 18.7131 105.936 18.5966 105.442 18.3636C104.953 18.1307 104.553 17.8381 104.24 17.4858C103.928 17.1278 103.689 16.767 103.524 16.4034H103.362V18.5H99.7827ZM103.337 11.9545C103.337 12.733 103.445 13.4119 103.661 13.9915C103.876 14.571 104.189 15.0227 104.598 15.3466C105.007 15.6648 105.504 15.8239 106.089 15.8239C106.68 15.8239 107.18 15.6619 107.589 15.3381C107.999 15.0085 108.308 14.554 108.518 13.9744C108.734 13.3892 108.842 12.7159 108.842 11.9545C108.842 11.1989 108.737 10.5341 108.527 9.96023C108.317 9.38636 108.007 8.9375 107.598 8.61364C107.189 8.28977 106.686 8.12784 106.089 8.12784C105.499 8.12784 104.999 8.28409 104.589 8.59659C104.186 8.90909 103.876 9.35227 103.661 9.92614C103.445 10.5 103.337 11.1761 103.337 11.9545Z" fill="black"/>
</svg>
