<svg width="26" height="26" viewBox="0 0 26 26" fill="none" xmlns="http://www.w3.org/2000/svg">
<path d="M16.9488 7.86839L13.6001 0.608532C13.3638 0.0961872 12.6356 0.0961877 12.3993 0.608533L9.05067 7.86839C8.95436 8.0772 8.75647 8.22097 8.52811 8.24805L0.588792 9.18938C0.0284957 9.25581 -0.196521 9.94835 0.21772 10.3314L6.08746 15.7596C6.25629 15.9157 6.33188 16.1484 6.28706 16.3739L4.72894 24.2155C4.61898 24.7689 5.20808 25.1969 5.70042 24.9214L12.6768 21.0163C12.8774 20.904 13.122 20.904 13.3227 21.0163L20.299 24.9214C20.7914 25.1969 21.3805 24.7689 21.2705 24.2155L19.7124 16.3739C19.6676 16.1484 19.7432 15.9157 19.912 15.7596L25.7817 10.3314C26.196 9.94835 25.971 9.25581 25.4107 9.18938L17.4713 8.24805C17.243 8.22097 17.0451 8.0772 16.9488 7.86839Z" fill="#FDD017"/>
</svg>
