<svg width="21" height="21" viewBox="0 0 21 21" fill="none" xmlns="http://www.w3.org/2000/svg">
<path d="M12.8277 7.25389L10.6601 2.55464C10.5072 2.223 10.0358 2.223 9.88285 2.55464L7.7153 7.25389C7.65295 7.38905 7.52486 7.48212 7.37705 7.49964L2.23798 8.10896C1.87531 8.15196 1.72965 8.60023 1.99779 8.8482L5.79723 12.3618C5.90651 12.4629 5.95544 12.6135 5.92643 12.7594L4.91787 17.8353C4.84669 18.1935 5.22802 18.4705 5.5467 18.2922L10.0624 15.7644C10.1923 15.6917 10.3507 15.6917 10.4805 15.7644L14.9963 18.2922C15.315 18.4705 15.6963 18.1935 15.6251 17.8353L14.6166 12.7594C14.5875 12.6135 14.6365 12.4629 14.7458 12.3618L18.5452 8.8482C18.8133 8.60023 18.6677 8.15196 18.305 8.10896L13.1659 7.49964C13.0181 7.48212 12.89 7.38905 12.8277 7.25389Z" stroke="white" stroke-width="1.71196" stroke-linecap="round" stroke-linejoin="round"/>
</svg>
