<svg width="28" height="27" viewBox="0 0 28 27" fill="none" xmlns="http://www.w3.org/2000/svg">
<path d="M17.8176 8.94404L14.4689 1.68419C14.2326 1.17184 13.5044 1.17184 13.2681 1.68419L9.91945 8.94404C9.82313 9.15285 9.62524 9.29663 9.39689 9.3237L1.45757 10.265C0.89727 10.3315 0.672253 11.024 1.08649 11.4071L6.95624 16.8352C7.12507 16.9914 7.20065 17.224 7.15584 17.4496L5.59771 25.2912C5.48775 25.8446 6.07686 26.2726 6.56919 25.997L13.5455 22.0919C13.7462 21.9796 13.9908 21.9796 14.1915 22.0919L21.1678 25.997C21.6601 26.2726 22.2492 25.8446 22.1393 25.2912L20.5812 17.4496C20.5363 17.224 20.6119 16.9914 20.7808 16.8352L26.6505 11.4071C27.0647 11.024 26.8397 10.3315 26.2794 10.265L18.3401 9.3237C18.1118 9.29663 17.9139 9.15285 17.8176 8.94404Z" fill="#FDD017" stroke="#FDD017" stroke-width="1.5124" stroke-linecap="round" stroke-linejoin="round"/>
</svg>
