<svg width="32" height="32" viewBox="0 0 32 32" fill="none" xmlns="http://www.w3.org/2000/svg">
<path d="M20.08 11.2065L16.7314 3.94664C16.495 3.43429 15.7669 3.43429 15.5305 3.94664L12.1819 11.2065C12.0856 11.4153 11.8877 11.5591 11.6593 11.5862L3.72002 12.5275C3.15972 12.5939 2.9347 13.2864 3.34895 13.6695L9.21869 19.0977C9.38752 19.2538 9.4631 19.4865 9.41829 19.712L7.86017 27.5536C7.7502 28.107 8.33931 28.535 8.83165 28.2595L15.808 24.3544C16.0087 24.2421 16.2533 24.2421 16.4539 24.3544L23.4303 28.2595C23.9226 28.535 24.5117 28.107 24.4017 27.5536L22.8436 19.712C22.7988 19.4865 22.8744 19.2538 23.0432 19.0977L28.913 13.6695C29.3272 13.2864 29.1022 12.5939 28.5419 12.5275L20.6026 11.5862C20.3742 11.5591 20.1763 11.4153 20.08 11.2065Z" fill="#E5E5E5"/>
</svg>
